# xmcd
#
# Track frame offsets:
#	150
#	19752
#	36672
#	57646
#	74789
#	91717
#	108183
#	126882
#	143800
#	155481
#	169212
#	179081
#	192420
#	204466
#	217483
#	230861
#	246835
#	264035
#	280838
#	297932
#	313677
#	329906
#
# Disc length: 4624 seconds
#
# Revision: 0
# Processed by: cddbd v1.5.2PL0 Copyright (c) Steve Scherf et al.
# Submitted via: EasyCDDAExtractor 16.0.9.1
#
DISCID=6c120e16
DTITLE=Ray Charles - N-107 Ray Charles  Complete Country and Western CD4
DYEAR=1900
DGENRE=
TTITLE0=3/4 time
TTITLE1=Shakin´ your head
TTITLE2=I had it all
TTITLE3=Do I ever cross your mind
TTITLE4=Woman sensuous woman
TTITLE5=Then I´ll be over you
TTITLE6=If I were you
TTITLE7=Workin´ man´s woman
TTITLE8=Two old cats like us
TTITLE9=This old heart
TTITLE10=We didn´t see a thing
TTITLE11=Who cares
TTITLE12=Friendship
TTITLE13=It ain´t gonna worry my mind
TTITLE14=Little hotel room
TTITLE15=Crazy old soldier
TTITLE16=Seven spanish angels
TTITLE17=The pages of my mind
TTITLE18=Slip away
TTITLE19=Anybody with the blues
TTITLE20=A little bit of heaven
TTITLE21=Dixie moon
EXTD=
EXTT0=
EXTT1=
EXTT2=
EXTT3=
EXTT4=
EXTT5=
EXTT6=
EXTT7=
EXTT8=
EXTT9=
EXTT10=
EXTT11=
EXTT12=
EXTT13=
EXTT14=
EXTT15=
EXTT16=
EXTT17=
EXTT18=
EXTT19=
EXTT20=
EXTT21=
PLAYORDER=
